HIERARCHY
ROOT Hips
{
    OFFSET   0.000000   0.000000   0.000000
    CHANNELS 6 Xposition Yposition Zposition Zrotation Xrotation Yrotation
    JOINT Chest
    {
        OFFSET   0.000000   8.007230   0.000000
        CHANNELS 3 Zrotation Xrotation Yrotation
        JOINT Chest2
        {
            OFFSET   0.000000  22.077100   0.000000
            CHANNELS 3 Zrotation Xrotation Yrotation
            JOINT Neck
            {
                OFFSET   0.000000  23.255100   0.000000
                CHANNELS 3 Zrotation Xrotation Yrotation
                JOINT Head
                {
                    OFFSET   0.000000  14.370100   1.956600
                    CHANNELS 3 Zrotation Xrotation Yrotation
                    End Site
                    {
                        OFFSET   0.000000  19.566000   0.000000
                    }
                }
            }
            JOINT LeftCollar
            {
                OFFSET   3.911900  19.017000  -0.467063
                CHANNELS 3 Zrotation Xrotation Yrotation
                JOINT LeftShoulder
                {
                    OFFSET  10.383700   0.000000   0.000000
                    CHANNELS 3 Zrotation Xrotation Yrotation
                    JOINT LeftElbow
                    {
                        OFFSET  26.662100   0.001193   0.000980
                        CHANNELS 3 Zrotation Xrotation Yrotation
                        JOINT LeftWrist
                        {
                            OFFSET  28.869000  -0.000059  -0.000082
                            CHANNELS 3 Zrotation Xrotation Yrotation
                            JOINT LeftFinger0
                            {
                                OFFSET   2.044650  -2.323450   3.252850
                                CHANNELS 3 Zrotation Xrotation Yrotation
                                JOINT LeftFinger01
                                {
                                    OFFSET   3.088130   0.000000   0.000000
                                    CHANNELS 3 Zrotation Xrotation Yrotation
                                    JOINT LeftFinger02
                                    {
                                        OFFSET   2.639460   0.000000   0.000000
                                        CHANNELS 3 Zrotation Xrotation Yrotation
                                        End Site
                                        {
                                            OFFSET   2.582190   0.000000   0.000000
                                        }
                                    }
                                }
                            }
                            JOINT LeftFinger1
                            {
                                OFFSET   8.364480   0.000000   3.252850
                                CHANNELS 3 Zrotation Xrotation Yrotation
                                JOINT LeftFinger11
                                {
                                    OFFSET   4.646930   0.000000   0.000000
                                    CHANNELS 3 Zrotation Xrotation Yrotation
                                    JOINT LeftFinger12
                                    {
                                        OFFSET   2.323470   0.000000   0.000000
                                        CHANNELS 3 Zrotation Xrotation Yrotation
                                        End Site
                                        {
                                            OFFSET   2.273050   0.000000   0.000000
                                        }
                                    }
                                }
                            }
                            JOINT LeftFinger2
                            {
                                OFFSET   8.364490   0.000016   1.078090
                                CHANNELS 3 Zrotation Xrotation Yrotation
                                JOINT LeftFinger21
                                {
                                    OFFSET   5.111610   0.000000   0.000000
                                    CHANNELS 3 Zrotation Xrotation Yrotation
                                    JOINT LeftFinger22
                                    {
                                        OFFSET   2.788150   0.000016   0.000000
                                        CHANNELS 3 Zrotation Xrotation Yrotation
                                        End Site
                                        {
                                            OFFSET   2.727660   0.000000   0.000000
                                        }
                                    }
                                }
                            }
                            JOINT LeftFinger3
                            {
                                OFFSET   7.899780   0.000015  -1.078090
                                CHANNELS 3 Zrotation Xrotation Yrotation
                                JOINT LeftFinger31
                                {
                                    OFFSET   4.646930   0.000000   0.000000
                                    CHANNELS 3 Zrotation Xrotation Yrotation
                                    JOINT LeftFinger32
                                    {
                                        OFFSET   2.323470   0.000000   0.000000
                                        CHANNELS 3 Zrotation Xrotation Yrotation
                                        End Site
                                        {
                                            OFFSET   2.273050   0.000000   0.000000
                                        }
                                    }
                                }
                            }
                            JOINT LeftFinger4
                            {
                                OFFSET   7.435090   0.000000  -3.252850
                                CHANNELS 3 Zrotation Xrotation Yrotation
                                JOINT LeftFinger41
                                {
                                    OFFSET   3.717550   0.000000   0.000000
                                    CHANNELS 3 Zrotation Xrotation Yrotation
                                    JOINT LeftFinger42
                                    {
                                        OFFSET   1.858770   0.000000   0.000000
                                        CHANNELS 3 Zrotation Xrotation Yrotation
                                        End Site
                                        {
                                            OFFSET   1.818440   0.000000   0.000000
                                        }
                                    }
                                }
                            }
                        }
                    }
                }
            }
            JOINT RightCollar
            {
                OFFSET  -3.911910  19.017000  -0.467062
                CHANNELS 3 Zrotation Xrotation Yrotation
                JOINT RightShoulder
                {
                    OFFSET -10.383700   0.000014   0.000000
                    CHANNELS 3 Zrotation Xrotation Yrotation
                    JOINT RightElbow
                    {
                        OFFSET -26.662100   0.001225   0.001091
                        CHANNELS 3 Zrotation Xrotation Yrotation
                        JOINT RightWrist
                        {
                            OFFSET -28.869000  -0.000020  -0.000085
                            CHANNELS 3 Zrotation Xrotation Yrotation
                            JOINT RightFinger0
                            {
                                OFFSET  -2.044650  -2.323490   3.252850
                                CHANNELS 3 Zrotation Xrotation Yrotation
                                JOINT RightFinger01
                                {
                                    OFFSET  -3.088130   0.000000   0.000000
                                    CHANNELS 3 Zrotation Xrotation Yrotation
                                    JOINT RightFinger02
                                    {
                                        OFFSET  -2.639460   0.000000   0.000000
                                        CHANNELS 3 Zrotation Xrotation Yrotation
                                        End Site
                                        {
                                            OFFSET  -2.582190   0.000000   0.000000
                                        }
                                    }
                                }
                            }
                            JOINT RightFinger1
                            {
                                OFFSET  -8.364480   0.000000   3.252850
                                CHANNELS 3 Zrotation Xrotation Yrotation
                                JOINT RightFinger11
                                {
                                    OFFSET  -4.646930   0.000000   0.000000
                                    CHANNELS 3 Zrotation Xrotation Yrotation
                                    JOINT RightFinger12
                                    {
                                        OFFSET  -2.323470   0.000000   0.000000
                                        CHANNELS 3 Zrotation Xrotation Yrotation
                                        End Site
                                        {
                                            OFFSET  -2.273050   0.000000   0.000000
                                        }
                                    }
                                }
                            }
                            JOINT RightFinger2
                            {
                                OFFSET  -8.364480   0.000000   1.078090
                                CHANNELS 3 Zrotation Xrotation Yrotation
                                JOINT RightFinger21
                                {
                                    OFFSET  -5.111620   0.000000   0.000000
                                    CHANNELS 3 Zrotation Xrotation Yrotation
                                    JOINT RightFinger22
                                    {
                                        OFFSET  -2.788160   0.000000   0.000000
                                        CHANNELS 3 Zrotation Xrotation Yrotation
                                        End Site
                                        {
                                            OFFSET  -2.727660   0.000000   0.000000
                                        }
                                    }
                                }
                            }
                            JOINT RightFinger3
                            {
                                OFFSET  -7.899780   0.000000  -1.078090
                                CHANNELS 3 Zrotation Xrotation Yrotation
                                JOINT RightFinger31
                                {
                                    OFFSET  -4.646930   0.000000   0.000000
                                    CHANNELS 3 Zrotation Xrotation Yrotation
                                    JOINT RightFinger32
                                    {
                                        OFFSET  -2.323470   0.000000   0.000000
                                        CHANNELS 3 Zrotation Xrotation Yrotation
                                        End Site
                                        {
                                            OFFSET  -2.273050   0.000000   0.000000
                                        }
                                    }
                                }
                            }
                            JOINT RightFinger4
                            {
                                OFFSET  -7.435090   0.000000  -3.252850
                                CHANNELS 3 Zrotation Xrotation Yrotation
                                JOINT RightFinger41
                                {
                                    OFFSET  -3.717550   0.000000   0.000000
                                    CHANNELS 3 Zrotation Xrotation Yrotation
                                    JOINT RightFinger42
                                    {
                                        OFFSET  -1.858760   0.000000   0.000000
                                        CHANNELS 3 Zrotation Xrotation Yrotation
                                        End Site
                                        {
                                            OFFSET  -1.818440   0.000000   0.000000
                                        }
                                    }
                                }
                            }
                        }
                    }
                }
            }
        }
    }
    JOINT LeftHip
    {
        OFFSET   9.783030   0.000000   0.000000
        CHANNELS 3 Zrotation Xrotation Yrotation
        JOINT LeftKnee
        {
            OFFSET   0.000063 -41.789100   0.000608
            CHANNELS 3 Zrotation Xrotation Yrotation
            JOINT LeftAnkle
            {
                OFFSET   0.000048 -41.133200  -0.000184
                CHANNELS 3 Zrotation Xrotation Yrotation
                JOINT LeftToe
                {
                    OFFSET   0.000000  -6.358960  14.674500
                    CHANNELS 3 Zrotation Xrotation Yrotation
                    End Site
                    {
                        OFFSET   0.000000   0.000000   3.913200
                    }
                }
            }
        }
    }
    JOINT RightHip
    {
        OFFSET  -9.783030   0.000000   0.000000
        CHANNELS 3 Zrotation Xrotation Yrotation
        JOINT RightKnee
        {
            OFFSET   0.000071 -41.789100   0.001239
            CHANNELS 3 Zrotation Xrotation Yrotation
            JOINT RightAnkle
            {
                OFFSET   0.000037 -41.133200  -0.000166
                CHANNELS 3 Zrotation Xrotation Yrotation
                JOINT RightToe
                {
                    OFFSET   0.000000  -6.358960  14.674500
                    CHANNELS 3 Zrotation Xrotation Yrotation
                    End Site
                    {
                        OFFSET   0.000000   0.000000   3.913200
                    }
                }
            }
        }
    }
}
MOTION
Frames: 5
Frame Time:   0.016667
 -2.881490  89.820400  -0.947881  -0.734247  -4.620440  -0.257488  -0.252590   4.195200  -0.141048  -0.496797   8.390970  -0.264561   1.608240  -1.194310   0.039057   2.645170  -2.416490   5.841080  -5.704820  -0.241918   3.723120 -68.631500  17.907200  -0.519639  -2.513430  -5.299200 -19.248300   7.460810  -9.132620   6.823400  42.339200  33.276600 -69.379500 -24.722600   0.014702   0.006830  -7.362950   0.011922  -0.000502 -31.912300   3.498330  -5.596240 -26.260900  -0.005171   0.004631 -18.382600  -0.003717   0.000659 -28.514900  -0.559742   1.030410 -36.308200  -0.003316   0.001443 -24.181200   0.005040   0.000400 -27.690000  -0.544784   1.038400 -30.149300  -0.000760   0.001618 -20.079500   0.000000   0.001720 -28.113100  -0.552746   1.034180 -42.188200  -0.002293   0.008136 -28.090100  -0.007386  -0.005997  10.131500   1.670540   7.892420  65.715100  11.009900  -2.066080   1.576830  -3.272230  15.361200 -16.432900 -22.481300  -6.444400 -40.580300  37.475800  79.041900  27.065100   0.000706  -0.000273   8.532560   0.000465   0.004856  37.167000  -2.667910  -3.513630  30.476300   0.003424  -0.011649  21.333400   0.008917  -0.011776  28.556800  -2.480150  -4.546060  38.241300   0.003280  -0.007653  25.468700   0.005667  -0.013949  28.592300  -2.826770  -5.167720  39.751700   0.003522  -0.004209  26.474600   0.004205  -0.004333  36.176000  -3.483780  -4.750310  54.480800   0.009216  -0.004594  36.284200   0.001350  -0.004069   2.936630   3.792940   2.498380   0.589903   3.803980  13.407300  -6.737360  -3.591650   3.879470   0.000000   0.000000   0.000000   3.310620   3.927010  -8.146360  -1.396720   3.826680  -9.700160  -7.265410  -0.857138   0.559689   0.000000   0.000000   0.000000
 -2.867820  89.824000  -0.927279  -0.736847  -4.612740  -0.291514  -0.248667   4.199480  -0.134559  -0.489392   8.399530  -0.251803   1.602550  -1.212660   0.039040   2.635930  -2.453480   5.887150  -5.717270  -0.263192   3.728020 -68.631000  17.957300  -0.546805  -2.512450  -5.313590 -19.190900   7.470980  -9.107910   6.819840  42.337800  33.276700 -69.379400 -24.719700   0.014711   0.006832  -7.360760   0.011921  -0.000489 -31.917300   3.503910  -5.604010 -26.260900  -0.005179   0.004633 -18.382600  -0.003723   0.000659 -28.515000  -0.554720   1.021100 -36.325200  -0.003324   0.001432 -24.192600   0.005039   0.000395 -27.690200  -0.539898   1.029020 -30.158000  -0.000738   0.001611 -20.085300   0.000000   0.001720 -28.113700  -0.547705   1.024880 -42.185100  -0.002269   0.008140 -28.090500  -0.007388  -0.005996  10.119200   1.659720   7.920500  65.732300  11.039000  -2.045110   1.572510  -3.286420  15.362100 -16.442600 -22.483700  -6.437150 -40.576200  37.461200  79.038000  27.048100   0.000693  -0.000285   8.524060   0.000453   0.004858  37.136800  -2.646100  -3.488610  30.450600   0.003401  -0.011654  21.315500   0.008912  -0.011776  28.555800  -2.486940  -4.559120  38.189000   0.003274  -0.007650  25.433900   0.005670  -0.013940  28.593100  -2.822940  -5.160950  39.724400   0.003514  -0.004212  26.456400   0.004209  -0.004338  36.167600  -3.478320  -4.744660  54.468000   0.009221  -0.004599  36.275700   0.001353  -0.004075   2.930530   3.807970   2.498420   0.580577   3.789080  13.434400  -6.727100  -3.601680   3.890900   0.000000   0.000000   0.000000   3.297400   3.974510  -8.157440  -1.379770   3.746680  -9.730960  -7.264580  -0.834967   0.636724  -0.000000   0.000000   0.000000
 -2.845060  89.829500  -0.894183  -0.740926  -4.601550  -0.345189  -0.242084   4.208700  -0.124388  -0.476915   8.417920  -0.231830   1.592410  -1.245830   0.039008   2.619470  -2.520450   5.964660  -5.735870  -0.300570   3.741500 -68.627500  18.039900  -0.597482  -2.511270  -5.336490 -19.103600   7.486930  -9.081680   6.812570  42.336300  33.277100 -69.379100 -24.712400   0.014726   0.006834  -7.356210   0.011919  -0.000453 -31.924400   3.512120  -5.615520 -26.260900  -0.005201   0.004638 -18.382600  -0.003739   0.000661 -28.515200  -0.547163   1.007100 -36.351500  -0.003347   0.001402 -24.210100   0.005034   0.000382 -27.690400  -0.532556   1.014900 -30.173400  -0.000685   0.001595 -20.095500   0.000000   0.001721 -28.116500  -0.540184   1.010860 -42.182000  -0.002210   0.008153 -28.093200  -0.007394  -0.005992  10.099300   1.639610   7.967550  65.758400  11.084700  -2.005830   1.564490  -3.306430  15.366400 -16.463900 -22.490800  -6.423780 -40.575500  37.445400  79.029400  27.031100   0.000662  -0.000297   8.515570   0.000432   0.004859  37.096600  -2.584510  -3.412490  30.414800   0.003344  -0.011667  21.290500   0.008900  -0.011780  28.554400  -2.496690  -4.577720  38.136700   0.003258  -0.007641  25.399000   0.005677  -0.013919  28.594600  -2.815150  -5.146860  39.697200   0.003497  -0.004222  26.438300   0.004221  -0.004351  36.160100  -3.468290  -4.732030  54.455300   0.009232  -0.004617  36.267100   0.001360  -0.004092   2.920520   3.833920   2.498480   0.565739   3.763250  13.476200  -6.709860  -3.617100   3.908260   0.000000   0.000000  -0.000000   3.275880   4.050040  -8.176110  -1.352880   3.620620  -9.778560  -7.263770  -0.799552   0.757928  -0.000000   0.000000  -0.000000
 -2.826920  89.832900  -0.870300  -0.743676  -4.595320  -0.382098  -0.236799   4.219640  -0.117524  -0.466798   8.439730  -0.218396   1.582340  -1.277380   0.038966   2.603080  -2.584370   6.029380  -5.746740  -0.334368   3.763670 -68.618000  18.103900  -0.645896  -2.517870  -5.351810 -19.053000   7.494130  -9.080430   6.800890  42.360700  33.289300 -69.371500 -24.700300   0.014741   0.006817  -7.350050   0.011918  -0.000391 -31.926900   3.517110  -5.622680 -26.262300  -0.005240   0.004645 -18.383600  -0.003766   0.000663 -28.515400  -0.542053   0.997621 -36.368900  -0.003381   0.001354 -24.221700   0.005026   0.000360 -27.690600  -0.527613   1.005330 -30.189100  -0.000605   0.001568 -20.106000   0.000000   0.001723 -28.127000  -0.535304   1.001250 -42.196100  -0.002119   0.008173 -28.103700  -0.007402  -0.005985  10.084300   1.620810   8.005020  65.775400  11.110500  -1.964900   1.556040  -3.311670  15.375500 -16.495000 -22.503600  -6.410800 -40.596500  37.460800  79.015300  27.047800   0.000619  -0.000265   8.523940   0.000415   0.004851  37.085700  -2.482030  -3.279160  30.399700   0.003257  -0.011687  21.279900   0.008880  -0.011788  28.553700  -2.501730  -4.586790  38.154700   0.003233  -0.007625  25.411000   0.005690  -0.013887  28.596500  -2.805440  -5.128630  39.744700   0.003472  -0.004240  26.470000   0.004241  -0.004368  36.183800  -3.458060  -4.713910  54.488300   0.009248  -0.004648  36.289100   0.001373  -0.004118   2.912440   3.854630   2.498520   0.555809   3.741430  13.502000  -6.695630  -3.626760   3.918640   0.000000   0.000000  -0.000000   3.259910   4.101390  -8.194940  -1.334070   3.535190  -9.808720  -7.268400  -0.774645   0.841911   0.000000   0.000000  -0.000000
 -2.808790  89.835600  -0.847933  -0.746164  -4.592560  -0.414680  -0.231310   4.234640  -0.111599  -0.456199   8.469680  -0.206852   1.572520  -1.312880   0.038939   2.587150  -2.656350   6.092500  -5.753890  -0.370749   3.791760 -68.607600  18.167800  -0.707662  -2.531930  -5.367250 -19.009700   7.502120  -9.079930   6.792920  42.398400  33.318500 -69.364800 -24.688000   0.014757   0.006800  -7.344020   0.011917  -0.000313 -31.928500   3.519450  -5.626110 -26.264900  -0.005290   0.004654 -18.385300  -0.003801   0.000666 -28.515400  -0.539476   0.992839 -36.382000  -0.003426   0.001291 -24.230400   0.005015   0.000333 -27.690700  -0.525127   1.000500 -30.203300  -0.000508   0.001535 -20.115400   0.000000   0.001725 -28.136900  -0.532904   0.996374 -42.212400  -0.002006   0.008198 -28.113400  -0.007413  -0.005978  10.071000   1.596220   8.044210  65.787000  11.142200  -1.919660   1.547130  -3.318750  15.389100 -16.525100 -22.519500  -6.395470 -40.604900  37.475900  79.000300  27.071600   0.000567  -0.000213   8.535830   0.000393   0.004834  37.085900  -2.349620  -3.104970  30.394800   0.003150  -0.011713  21.276400   0.008855  -0.011798  28.553400  -2.503820  -4.590330  38.181900   0.003202  -0.007605  25.429100   0.005706  -0.013845  28.598500  -2.795060  -5.109140  39.792100   0.003442  -0.004262  26.501600   0.004269  -0.004391  36.213200  -3.447260  -4.694450  54.531800   0.009268  -0.004690  36.318100   0.001390  -0.004151   2.905390   3.880330   2.498580   0.545704   3.716580  13.524400  -6.681510  -3.634750   3.926920   0.000000   0.000000   0.000000   3.244070   4.151200  -8.206990  -1.316460   3.458180  -9.834430  -7.275470  -0.751200   0.913046  -0.000000   0.000000   0.000000
